<svg width="17" height="21" viewBox="0 0 17 21" fill="none" xmlns="http://www.w3.org/2000/svg">
<path d="M12.661 0.0104708C12.6166 -0.0392218 11.0146 0.0300863 9.62064 1.54309C8.22663 3.05479 8.44109 4.7888 8.47248 4.83326C8.50386 4.87772 10.4602 4.94703 11.709 3.18818C12.9579 1.42932 12.7055 0.061471 12.661 0.0104708ZM16.9947 15.3537C16.932 15.2282 13.9543 13.74 14.2316 10.8787C14.5088 8.0162 16.422 7.23158 16.452 7.14658C16.4821 7.06158 15.6714 6.1135 14.8122 5.63357C14.1814 5.29521 13.4832 5.10135 12.7683 5.06603C12.627 5.06211 12.1366 4.9418 11.1284 5.21772C10.4641 5.39949 8.96679 5.98796 8.55486 6.0115C8.14163 6.03504 6.91239 5.32888 5.59031 5.14188C4.74423 4.97842 3.84715 5.31319 3.20507 5.5708C2.5643 5.82711 1.34552 6.55681 0.492905 8.49612C-0.359714 10.4341 0.086211 13.5046 0.405289 14.4592C0.724368 15.4125 1.2226 16.9752 2.06999 18.1155C2.82322 19.4023 3.8223 20.2955 4.23946 20.5989C4.65661 20.9023 5.83354 21.1036 6.64955 20.6865C7.30601 20.2837 8.49078 20.0522 8.95894 20.0692C9.42579 20.0862 10.3464 20.2706 11.2893 20.7741C12.036 21.0317 12.7421 20.9245 13.4496 20.6368C14.157 20.3478 15.181 19.2519 16.3762 17.0302C16.83 15.9971 17.0366 15.4387 16.9947 15.3537Z" fill="white"/>
<path d="M12.661 0.0104708C12.6166 -0.0392218 11.0146 0.0300863 9.62064 1.54309C8.22663 3.05479 8.44109 4.7888 8.47248 4.83326C8.50386 4.87772 10.4602 4.94703 11.709 3.18818C12.9579 1.42932 12.7055 0.061471 12.661 0.0104708ZM16.9947 15.3537C16.932 15.2282 13.9543 13.74 14.2316 10.8787C14.5088 8.0162 16.422 7.23158 16.452 7.14658C16.4821 7.06158 15.6714 6.1135 14.8122 5.63357C14.1814 5.29521 13.4832 5.10135 12.7683 5.06603C12.627 5.06211 12.1366 4.9418 11.1284 5.21772C10.4641 5.39949 8.96679 5.98796 8.55486 6.0115C8.14163 6.03504 6.91239 5.32888 5.59031 5.14188C4.74423 4.97842 3.84715 5.31319 3.20507 5.5708C2.5643 5.82711 1.34552 6.55681 0.492905 8.49612C-0.359714 10.4341 0.086211 13.5046 0.405289 14.4592C0.724368 15.4125 1.2226 16.9752 2.06999 18.1155C2.82322 19.4023 3.8223 20.2955 4.23946 20.5989C4.65661 20.9023 5.83354 21.1036 6.64955 20.6865C7.30601 20.2837 8.49078 20.0522 8.95894 20.0692C9.42579 20.0862 10.3464 20.2706 11.2893 20.7741C12.036 21.0317 12.7421 20.9245 13.4496 20.6368C14.157 20.3478 15.181 19.2519 16.3762 17.0302C16.83 15.9971 17.0366 15.4387 16.9947 15.3537Z" fill="white"/>
</svg>
